<svg
          width="24"
          height="25"
          viewBox="0 0 24 25"
          fill="none"
          xmlns="http://www.w3.org/2000/svg"
        >
          <g clip-path="url(#clip0_1102_538)">
            <path
              d="M15.5 14.9712H14.71L14.43 14.7012C15.41 13.5612 16 12.0812 16 10.4712C16 6.88119 13.09 3.97119 9.5 3.97119C5.91 3.97119 3 6.88119 3 10.4712C3 14.0612 5.91 16.9712 9.5 16.9712C11.11 16.9712 12.59 16.3812 13.73 15.4012L14 15.6812V16.4712L19 21.4612L20.49 19.9712L15.5 14.9712ZM9.5 14.9712C7.01 14.9712 5 12.9612 5 10.4712C5 7.98119 7.01 5.97119 9.5 5.97119C11.99 5.97119 14 7.98119 14 10.4712C14 12.9612 11.99 14.9712 9.5 14.9712Z"
              fill="#393640"
            />
          </g>
          <defs>
            <clipPath id="clip0_1102_538">
              <rect
                width="24"
                height="24"
                fill="white"
                transform="translate(0 0.971191)"
              />
            </clipPath>
          </defs>
        </svg>